HIERARCHY
ROOT Hips
{
	OFFSET	0.00	0.00	0.00
	CHANNELS 6 Xposition Yposition Zposition Zrotation Xrotation Yrotation
	JOINT LeftUpLeg
	{
		OFFSET	 0.126116	-0.014019	-0.065224
		CHANNELS 3 Zrotation Xrotation Yrotation
		JOINT LeftLeg
		{
			OFFSET	 0.000000	 0.000000	 0.569914
			CHANNELS 3 Zrotation Xrotation Yrotation
			JOINT LeftFoot
			{
				OFFSET	 0.000000	 0.000000	 0.544423
				CHANNELS 3 Zrotation Xrotation Yrotation
				JOINT LeftToeBase
				{
					OFFSET	 0.000000	 0.000000	 0.207117
					CHANNELS 3 Zrotation Xrotation Yrotation
					End Site
					{
						OFFSET	 0.000000	 0.000000	 0.207117
					}
				}
			}
		}
	}
	JOINT RightUpLeg
	{
		OFFSET	-0.124023	-0.008373	-0.065224
		CHANNELS 3 Zrotation Xrotation Yrotation
		JOINT RightLeg
		{
			OFFSET	 0.000000	 0.000000	 0.570047
			CHANNELS 3 Zrotation Xrotation Yrotation
			JOINT RightFoot
			{
				OFFSET	 0.000000	 0.000000	 0.544354
				CHANNELS 3 Zrotation Xrotation Yrotation
				JOINT RightToeBase
				{
					OFFSET	 0.000000	 0.000000	 0.207540
					CHANNELS 3 Zrotation Xrotation Yrotation
					End Site
					{
						OFFSET	 0.000000	 0.000000	 0.207540
					}
				}
			}
		}
	}
	JOINT Spine
	{
		OFFSET	 0.000184	-0.007763	 0.117403
		CHANNELS 3 Zrotation Xrotation Yrotation
		JOINT Spine1
		{
			OFFSET	 0.000000	 0.000000	 0.137269
			CHANNELS 3 Zrotation Xrotation Yrotation
			JOINT Spine2
			{
				OFFSET	 0.000000	 0.000000	 0.156879
				CHANNELS 3 Zrotation Xrotation Yrotation
				JOINT LeftShoulder
				{
					OFFSET	 0.080501	-0.002496	 0.160144
					CHANNELS 3 Zrotation Xrotation Yrotation
					JOINT LeftArm
					{
						OFFSET	 0.000000	 0.000000	 0.164363
						CHANNELS 3 Zrotation Xrotation Yrotation
						JOINT LeftForeArm
						{
							OFFSET	 0.000000	 0.000000	 0.364576
							CHANNELS 3 Zrotation Xrotation Yrotation
							JOINT LeftHand
							{
								OFFSET	 0.000000	 0.000000	 0.360812
								CHANNELS 3 Zrotation Xrotation Yrotation
								JOINT LeftHandIndex1
								{
									OFFSET	 0.000000	 0.000000	 0.086006
									CHANNELS 3 Zrotation Xrotation Yrotation
									JOINT LeftHandIndex2
									{
										OFFSET	 0.000000	 0.000000	 0.047236
										CHANNELS 3 Zrotation Xrotation Yrotation
										JOINT LeftHandIndex3
										{
											OFFSET	-0.004284	-0.000551	 0.038166
											CHANNELS 3 Zrotation Xrotation Yrotation
											End Site
											{
												OFFSET	-0.004284	-0.000551	 0.038166
											}
										}
									}
								}
							}
						}
					}
				}
				JOINT Neck
				{
					OFFSET	 0.000000	 0.000000	 0.176489
					CHANNELS 3 Zrotation Xrotation Yrotation
					JOINT Head
					{
						OFFSET	 0.000000	-0.001747	 0.077940
						CHANNELS 3 Zrotation Xrotation Yrotation
						End Site
						{
							OFFSET	 0.000000	-0.001747	 0.077940
						}
					}
				}
				JOINT RightShoulder
				{
					OFFSET	-0.080363	 0.000306	 0.159706
					CHANNELS 3 Zrotation Xrotation Yrotation
					JOINT RightArm
					{
						OFFSET	 0.000000	 0.000000	 0.164196
						CHANNELS 3 Zrotation Xrotation Yrotation
						JOINT RightForeArm
						{
							OFFSET	 0.000000	 0.000000	 0.365611
							CHANNELS 3 Zrotation Xrotation Yrotation
							JOINT RightHand
							{
								OFFSET	 0.000000	 0.000000	 0.360648
								CHANNELS 3 Zrotation Xrotation Yrotation
								JOINT RightHandIndex1
								{
									OFFSET	 0.000000	 0.000000	 0.069977
									CHANNELS 3 Zrotation Xrotation Yrotation
									JOINT RightHandIndex2
									{
										OFFSET	 0.000000	 0.000000	 0.052305
										CHANNELS 3 Zrotation Xrotation Yrotation
										JOINT RightHandIndex3
										{
											OFFSET	 0.009002	-0.000782	 0.042196
											CHANNELS 3 Zrotation Xrotation Yrotation
											End Site
											{
												OFFSET	 0.009002	-0.000782	 0.042196
											}
										}
									}
								}
							}
						}
					}
				}
			}
		}
	}
}
MOTION
Frames:    10
Frame Time: 0.03333334
-0.058040	-2.226824	 1.167869	 4.360329	-1.657623	-3.431160	 30.987500	-13.957650	-177.453600	 0.543595	-48.482880	 0.121890	 112.520700	 82.800030	-116.445900	-2.370889	 31.362730	-0.064228	-35.501340	-36.989090	-177.773900	 11.860550	-57.551960	 10.697950	-3.625656	 73.657260	 12.582700	 2.358120	 33.124990	 0.106130	-28.393460	 8.846838	 1.309065	 0.549069	 3.102837	 1.880740	-5.307400	-2.912521	-2.485937	-93.815410	 58.902840	 175.657900	 9.770293	 27.222400	-39.036870	 14.669000	-2.228807	-7.923132	-15.876150	-5.312377	-8.159216	-4.869353	 19.242460	-2.786461	-3.888902	 21.378370	 2.210245	-4.808246	 5.545631	 0.146960	-0.112195	-5.031820	 0.165641	-7.380709	 2.012383	 2.415260	 89.817580	 61.600430	-179.915600	-18.084350	 46.955390	 13.079990	-16.915480	-2.283526	 7.957812	 11.686990	 6.733215	-1.253013	 6.301392	 25.673530	-0.566791	 1.773876	 45.587190	-6.893372	 0.401251	 24.821890	 3.632118
-0.060656	-2.282319	 1.165841	 5.297544	-1.137787	-3.480426	 29.417260	-11.646840	-178.925600	 1.177658	-47.503710	 0.608272	 129.026600	 83.281110	-132.899000	-2.369252	 31.639980	-0.070485	-38.915130	-39.199390	 177.821400	 10.839750	-49.675340	 8.892623	-14.648260	 73.852790	 24.157430	 2.358927	 33.005940	 0.103369	-33.714080	 8.559943	 1.122452	 0.612965	 3.407732	 2.153009	-6.224670	-3.202454	-2.823548	-93.999850	 59.016990	 175.250300	 8.062241	 24.024820	-39.994500	 16.838920	-3.133900	-9.276377	-15.552860	-5.165222	-9.604125	-4.867664	 19.286090	-2.789364	-3.880791	 21.482200	 2.202007	-4.807238	 5.557580	 0.146262	-0.061033	-5.088876	 0.199702	-8.093715	 1.903567	 2.159946	 89.756760	 61.676670	 179.939500	-18.069650	 48.290180	 10.823690	-20.274700	-3.201913	 9.309989	 11.830270	 7.190538	-1.653799	 6.288138	 24.393290	-0.539817	 1.945125	 44.214030	-7.046198	 0.626876	 23.833110	 3.517596
-0.064060	-2.343790	 1.159657	 6.137733	-0.313033	-3.657917	 27.967710	-9.340565	 179.702800	 1.551277	-46.580150	 0.870610	 149.681000	 83.119350	-153.289600	-2.367464	 31.932460	-0.077134	-42.170840	-40.605670	 173.044000	 10.353900	-39.873520	 7.176642	-26.466980	 73.575280	 35.373630	 2.359529	 32.917330	 0.101305	-38.067930	 7.976227	 0.950339	 0.696244	 3.720309	 2.557979	-7.193530	-3.490513	-3.251299	-94.227080	 59.005860	 174.767000	 6.191762	 20.864200	-40.767760	 19.561090	-4.260590	-10.630950	-15.151910	-5.500370	-10.319230	-4.858535	 19.522200	-2.805529	-3.866106	 21.669590	 2.187086	-4.800210	 5.640408	 0.141410	-0.018604	-5.130467	 0.267370	-8.885781	 1.794109	 1.975140	 89.658670	 61.795880	 179.704100	-17.793940	 49.515010	 8.487573	-24.236050	-4.342619	 10.661240	 11.691200	 7.632818	-2.292618	 6.262534	 22.647460	-0.571667	 2.134470	 42.605750	-7.213721	 0.992688	 22.192650	 3.338810
-0.068073	-2.406338	 1.150766	 6.517942	 0.387002	-4.070755	 26.974350	-6.399971	 178.387500	 1.758462	-45.126640	 0.996298	 169.378800	 82.104470	-172.661100	-2.364227	 32.445720	-0.088878	-43.163350	-42.296110	 169.479500	 10.286700	-32.172530	 5.908069	-32.461210	 72.785910	 40.269950	 2.360197	 32.818550	 0.099014	-40.535040	 7.346048	 1.083579	 0.746289	 4.180142	 2.812172	-7.989695	-3.736005	-3.595053	-94.403910	 58.927100	 174.402300	 4.567245	 18.522960	-41.462200	 21.530220	-5.407666	-11.769700	-15.489580	-6.290478	-10.000270	-4.841483	 19.907620	-2.821004	-3.844827	 21.939490	 2.165462	-4.786296	 5.803984	 0.131806	 0.000987	-5.204920	 0.324455	-9.595996	 1.682811	 1.880366	 89.528140	 61.952360	 179.387800	-17.201700	 50.498340	 6.205652	-28.310750	-5.506842	 11.788150	 11.374980	 7.921975	-3.507293	 6.227978	 20.688890	-0.641430	 2.318558	 40.944360	-7.374993	 1.420653	 20.215650	 3.140916
-0.072817	-2.464384	 1.139137	 6.664689	 0.700441	-4.424775	 26.154860	-3.214687	 176.949500	 1.868209	-43.608900	 1.045416	-175.787500	 81.254440	 172.910000	-2.356215	 33.628780	-0.116321	-42.664750	-45.842840	 166.957800	 10.135860	-29.913440	 5.482262	-50.807510	 77.502080	 57.207840	 2.350013	 34.252690	 0.132653	-41.396420	 6.909279	 1.259858	 0.808935	 4.814088	 2.933007	-8.600034	-3.970339	-3.832070	-94.495570	 58.862870	 174.217800	 3.103763	 17.137790	-42.100190	 23.414290	-6.538054	-12.715330	-16.061040	-6.643958	-9.672184	-4.825022	 20.288130	-2.839470	-3.817687	 22.280980	 2.137901	-4.764711	 6.057199	 0.116838	 0.033408	-5.298738	 0.346502	-10.137530	 1.567163	 1.728444	 89.426990	 62.036870	 179.141300	-16.220710	 51.089650	 3.992371	-32.209870	-6.651178	 12.718440	 11.220850	 7.790596	-4.997416	 6.188274	 18.577850	-0.717733	 2.592330	 38.279240	-7.611534	 1.871467	 18.067440	 2.946286
-0.079114	-2.536486	 1.127512	 6.982718	 0.681258	-4.634165	 25.139010	 1.321015	 175.014900	 2.122056	-40.319000	 1.145045	-159.659300	 81.717170	 157.128900	-2.332041	 36.645550	-0.189098	-42.366280	-47.757250	 165.419500	 10.843700	-28.920290	 5.669834	-59.291870	 78.879110	 64.391470	 2.335484	 36.057670	 0.176269	-40.930220	 7.025969	 1.311140	 0.733435	 4.412224	 3.101175	-9.111438	-3.874912	-4.047608	-94.542690	 58.942780	 174.104600	 1.825328	 16.634440	-41.993120	 25.825300	-7.759330	-13.579810	-16.631630	-7.551026	-10.404170	-4.847949	 20.511530	-3.038246	-3.786650	 22.667720	 2.106375	-4.728878	 6.475420	 0.091900	 0.113396	-5.405137	 0.344481	-10.531870	 1.565249	 1.388713	 89.358050	 61.932300	 178.978600	-14.866750	 51.397940	 1.385228	-36.017150	-7.881628	 13.569520	 11.375820	 7.039706	-6.308022	 6.166250	 16.114980	-0.662332	 2.878858	 35.215000	-7.854222	 2.374837	 15.592480	 2.746648
-0.085671	-2.606073	 1.119687	 7.240215	 0.551067	-4.302133	 24.092840	 5.119117	 172.640900	 2.508994	-38.411620	 1.340094	-137.831500	 82.198710	 135.850600	-2.277681	 41.694130	-0.322018	-41.572210	-46.446560	 165.356600	 10.339740	-29.298260	 5.482867	-53.570060	 78.128130	 59.396800	 2.338881	 35.657680	 0.166471	-39.182530	 7.021915	 1.034838	 0.456374	 3.569780	 2.892265	-9.434107	-3.435167	-4.030405	-94.514730	 59.215310	 174.118700	 1.135485	 16.851700	-41.083840	 27.624580	-8.764089	-14.194680	-17.362920	-8.458375	-11.342810	-4.878449	 20.609750	-3.245164	-3.764060	 22.946720	 2.083444	-4.685558	 6.977798	 0.061565	 0.186239	-5.481147	 0.276094	-10.717100	 1.618920	 1.228900	 89.355850	 61.644300	 178.983900	-13.879170	 51.360810	-0.511538	-38.953540	-8.892455	 14.172280	 11.411860	 6.195720	-7.152030	 6.193564	 13.915320	-0.399240	 3.026704	 33.513490	-7.977208	 2.795596	 13.465580	 2.594825
-0.093180	-2.676316	 1.114372	 7.538540	 0.142841	-3.411132	 23.376600	 7.558704	 169.628400	 1.917327	-38.869410	 0.982015	-106.851500	 81.851530	 106.903000	-2.141711	 49.782980	-0.577694	-39.484910	-44.022980	 166.503400	 7.022872	-32.080760	 4.150812	-45.451480	 75.069440	 55.959590	 2.340857	 35.418220	 0.160645	-36.012430	 7.047133	 0.166959	 0.186530	 2.855340	 2.853011	-9.671114	-2.922528	-4.140137	-94.447620	 59.378490	 174.235600	 1.212421	 17.300690	-39.935300	 28.881790	-9.626866	-14.664080	-17.973450	-8.722042	-11.543480	-4.894804	 20.727930	-3.378701	-3.752569	 23.087910	 2.071776	-4.630341	 7.612890	 0.022618	 0.268053	-5.474211	 0.239246	-10.790550	 1.719709	 1.463388	 89.351110	 61.402420	 178.981500	-13.130200	 51.153570	-1.691250	-41.410970	-9.760589	 14.629370	 11.156420	 5.437668	-7.547673	 6.280197	 11.787560	 0.078066	 3.143578	 32.106270	-8.073218	 3.157075	 11.599080	 2.475800
-0.101474	-2.751858	 1.112165	 8.609480	-0.652176	-2.498998	 22.769380	 7.384417	 166.271500	-0.509412	-43.453530	-0.592966	-64.304740	 79.086590	 69.424950	-1.932826	 57.223320	-0.891332	-37.425590	-43.377270	 168.250000	 7.397984	-38.399900	 5.087097	-41.374000	 69.494980	 56.168660	 2.333468	 36.289570	 0.181985	-31.328880	 7.298162	-0.773948	 0.115726	 2.519626	 3.044650	-9.921678	-2.502756	-4.401162	-94.389850	 59.043210	 174.414100	 2.129125	 17.478950	-39.123970	 29.721190	-10.351380	-15.020050	-18.127300	-7.831026	-10.864380	-4.896262	 20.930450	-3.455349	-3.733188	 23.324710	 2.052104	-4.567628	 8.326861	-0.021984	 0.374168	-5.410256	 0.290198	-10.826330	 1.976227	 1.805827	 89.209250	 61.414820	 178.645700	-12.506080	 51.041710	-2.073345	-42.912520	-10.488530	 14.979070	 10.919860	 5.012797	-6.709694	 6.344547	 9.795534	 0.390927	 3.315753	 29.928020	-8.212536	 3.446737	 10.079240	 2.388300
-0.111409	-2.822227	 1.113345	 10.059430	-1.243161	-1.410439	 20.853230	 4.561412	 163.324400	 1.156113	-51.537640	 0.629084	-30.861490	 71.336620	 40.329860	-1.101804	 70.271980	-1.897234	-39.549710	-42.409600	 168.514900	 10.221690	-45.158460	 7.832761	-34.002510	 68.797850	 48.544780	 2.345351	 34.860360	 0.147160	-25.047110	 7.306879	-1.580057	 0.121137	 2.238335	 2.917519	-10.168700	-2.018718	-4.435462	-94.275890	 59.241240	 174.627100	 3.830153	 18.375770	-38.494950	 30.877200	-10.881030	-15.255590	-17.612510	-6.353305	-10.850420	-4.834158	 21.217430	-3.184093	-3.688145	 23.869400	 2.006391	-4.514242	 8.928720	-0.060264	 0.403895	-5.337945	 0.254153	-10.878220	 2.355466	 1.935645	 89.047840	 60.989360	 178.289700	-11.935390	 50.610160	-2.098795	-43.030000	-11.010920	 15.218490	 11.483200	 4.857076	-5.272825	 6.364067	 8.665330	 0.482518	 3.386262	 28.998180	-8.268802	 3.627156	 9.122557	 2.337423
